<svg width="50" height="50" viewBox="0 0 50 50" fill="none" xmlns="http://www.w3.org/2000/svg">
<g clip-path="url(#clip0)">
<path d="M11.2066 50H17.1737L7.7583 43.9655L0.019043 39.4431C0.357031 45.3212 5.24541 50 11.2066 50Z" fill="#FDE494"/>
<path d="M32.7586 46.5517L26.0197 44.8276H11.2069C7.87959 44.8276 5.17246 42.1204 5.17246 38.7931V35.4849L2.58623 32.7095L0 33.1667V38.793C0 39.0113 0.00703125 39.2279 0.0193359 39.4431L17.174 49.9999H37.5614L32.7586 46.5517Z" fill="#FEA150"/>
<path d="M43.1307 42.9824C42.0326 44.1188 40.4946 44.8275 38.7934 44.8275H26.02L37.5617 50H38.7934C42.817 50 46.3516 47.8683 48.3285 44.6751L45.6897 43.1034L43.1307 42.9824Z" fill="#FF5D4A"/>
<path d="M44.8275 31.8373V38.7932C44.8275 40.4193 44.1798 41.8962 43.1304 42.9825L48.3283 44.6752C49.3875 42.9643 50 40.949 50 38.7931V32.6598L47.3246 31.1567L44.8275 31.8373Z" fill="#E45261"/>
<path d="M49.9996 14.5692L47.2454 13.9133L44.8271 15.3612V31.8372L49.9996 32.6596V14.5692Z" fill="#FF4D95"/>
<path d="M49.9998 11.207C49.9998 5.57881 45.8291 0.906933 40.4162 0.118164L33.6355 2.93965L30.1997 5.17256H38.7929C42.1202 5.17256 44.8273 7.87969 44.8273 11.207V15.3614L49.9998 14.5694V11.207Z" fill="#CB319C"/>
<path d="M31.0285 0L24.6143 2.40586L19.5552 5.17246H30.1999L40.4164 0.117969C39.8862 0.0407226 39.3444 0 38.7931 0H31.0285Z" fill="#8A3293"/>
<path d="M25.0002 39.6552C26.793 39.6552 28.5113 39.331 30.1004 38.7392L21.7 34.926L12.7959 33.104C15.4246 37.0498 19.9136 39.6552 25.0002 39.6552Z" fill="#FF5D4A"/>
<path d="M32.1439 29.8202C30.5929 32.1117 27.9693 33.6208 25.0001 33.6208C21.0672 33.6208 17.7435 30.9726 16.7123 27.3663L14.3996 25.9209L10.4106 26.3641C10.6404 28.8392 11.4862 31.1382 12.7959 33.104L30.1004 38.7393C33.8409 37.3463 36.8618 34.4661 38.4459 30.8225L35.345 29.2517L32.1439 29.8202Z" fill="#E45261"/>
<path d="M16.3792 25.0002C16.3792 22.8636 17.1622 20.9077 18.4541 19.4L14.7766 18.8855L11.0412 20.5351C10.5896 21.9435 10.3447 23.4437 10.3447 25.0002C10.3447 25.4603 10.3686 25.9147 10.4103 26.364L16.712 27.3662C16.4969 26.6138 16.3792 25.8208 16.3792 25.0002Z" fill="#FF4D95"/>
<path d="M39.6551 25C39.6551 21.8616 38.663 18.9506 36.9766 16.5635L33.3245 16.0452L29.5728 17.6972C32.0018 19.2237 33.6206 21.9255 33.6206 25C33.6206 26.7842 33.0757 28.4435 32.1438 29.8202L38.4456 30.8223C39.222 29.0366 39.6551 27.0684 39.6551 25Z" fill="#FF4D95"/>
<path d="M25.0002 16.3794C26.6793 16.3794 28.2465 16.8637 29.573 17.6973L36.9769 16.5636C34.321 12.8045 29.9427 10.345 25.0002 10.345C18.4758 10.345 12.9344 14.631 11.0415 20.5349L18.4544 19.3998C20.0366 17.5531 22.3833 16.3794 25.0002 16.3794Z" fill="#CB319C"/>
<path d="M38.793 14.6553C40.6943 14.6553 42.2412 13.1084 42.2412 11.207C42.2412 9.30567 40.6943 7.75879 38.793 7.75879C36.8916 7.75879 35.3447 9.30567 35.3447 11.207C35.3447 13.1084 36.8916 14.6553 38.793 14.6553Z" fill="#CB319C"/>
<path d="M5.17246 30.6216L2.68262 29.3797L0 28.9373V33.167L5.17246 35.4851V30.6216Z" fill="#FF5D4A"/>
<path d="M0 24.7084V28.9371L5.17246 30.6214V25.5309L2.48496 24.5647L0 24.7084Z" fill="#E45261"/>
<path d="M5.17246 21.4337L2.51455 21.4097L0 22.2258V24.7086L5.17246 25.5312V21.4337Z" fill="#FF4D95"/>
<path d="M5.17246 17.5544L2.43271 17.8324L0 20.1135V22.2256L5.17246 21.4335V17.5544Z" fill="#CB319C"/>
<path d="M0 20.1135L5.17246 17.5544V11.6565L2.13867 11.9466L0 13.9884V20.1135Z" fill="#8A3293"/>
<path d="M20.0253 0L8.22324 4.53916L0.135449 9.46562C0.046582 10.0333 0 10.6147 0 11.2069V13.9884L5.17246 11.6565V11.2068C5.17246 7.87949 7.87959 5.17236 11.2069 5.17236H19.5553L31.0285 0H20.0253Z" fill="#523494"/>
<path d="M11.2067 0C5.61943 0 0.974219 4.11016 0.135254 9.46562L20.0251 0H11.2067Z" fill="#2D2D87"/>
</g>
<defs>
<clipPath id="clip0">
<rect width="50" height="50" fill="white"/>
</clipPath>
</defs>
</svg>
