<svg width="50" height="50" viewBox="0 0 50 50" fill="none" xmlns="http://www.w3.org/2000/svg">
<path d="M50 0H0V50H50V0Z" fill="#44678D"/>
<path d="M12.7476 15.0453C13.9459 18.0045 15.4645 20.7945 17.4647 23.2992C17.73 23.6325 18.0644 23.9288 18.4167 24.1701C18.9313 24.5235 19.4168 24.3993 19.626 23.8107C19.8473 23.193 20.0504 21.9412 20.0624 21.2925C20.0954 19.5977 20.0575 18.4869 19.9664 16.7942C19.9074 15.71 19.522 14.758 17.9272 14.4706C17.4347 14.3816 17.3889 13.9762 17.7053 13.5718C18.3641 12.7298 19.2817 12.5956 20.2768 12.5425C21.8896 12.4554 23.5083 12.5265 25.1231 12.5425C25.7808 12.5486 26.4425 12.6016 27.0903 12.7428C27.9352 12.927 28.3876 13.5196 28.5268 14.3445C28.5989 14.7699 28.636 15.2074 28.6259 15.6379C28.5839 17.4879 28.4948 19.3369 28.4737 21.1859C28.4647 21.9117 28.5177 22.6555 28.673 23.3623C28.8902 24.3473 29.5609 24.5946 30.2467 23.8829C31.1176 22.9789 31.8855 21.9618 32.6062 20.9287C33.9157 19.0497 34.8937 16.9875 35.7356 14.8612C36.171 13.7641 36.5045 13.5258 37.6847 13.5228C39.9031 13.5178 42.1215 13.5158 44.3399 13.5228C44.7333 13.5248 45.1448 13.5619 45.5161 13.68C46.1188 13.8723 46.3581 14.3638 46.2169 14.9875C45.8875 16.4491 45.0977 17.6914 44.2518 18.8857C42.8943 20.8018 41.4718 22.6719 40.0823 24.5658C39.9052 24.8071 39.749 25.0644 39.6038 25.3256C39.0842 26.2647 39.1203 26.7912 39.8781 27.573C41.0844 28.8174 42.3758 29.9815 43.544 31.2599C44.393 32.19 45.1788 33.199 45.8515 34.2611C46.7025 35.6046 46.1768 36.8699 44.5872 37.0952C43.5872 37.2364 38.702 37.0963 38.4496 37.0952C37.1362 37.0892 35.985 36.6337 35.0579 35.7417C34.0268 34.7487 33.0897 33.6595 32.0997 32.6233C31.8014 32.311 31.483 32.0117 31.1397 31.7504C30.3298 31.1327 29.5349 31.2698 29.1565 32.2209C28.8332 33.0378 28.5538 35.1831 28.5408 35.3663C28.4728 36.3243 27.8631 36.935 26.7899 36.994C23.6915 37.1622 20.6892 36.8168 17.8923 35.3182C15.5217 34.0489 13.6287 32.2539 11.9889 30.1607C9.38408 26.8359 7.32662 23.1813 5.44821 19.4193C5.35221 19.227 3.44966 15.1785 3.39853 14.9873C3.22859 14.347 3.38712 13.7353 3.92812 13.5248C4.26538 13.3936 10.5382 13.5244 10.6425 13.53C11.6434 13.5842 12.3259 14.0064 12.7476 15.0453Z" fill="white"/>
</svg>
